<svg preserveAspectRatio="none" width="100%" height="100%" overflow="visible" style="display: block;" viewBox="0 0 14.3982 16" fill="none" xmlns="http://www.w3.org/2000/svg">
<path id="Vector" d="M12.0045 16H5.59729C4.27603 16 3.20363 14.9276 3.20363 13.6063V5.59729C3.20363 4.27603 4.27603 3.20363 5.59729 3.20363H12.0045C13.3258 3.20363 14.3982 4.27603 14.3982 5.59729V13.6063C14.3933 14.923 13.3313 16 12.0045 16ZM5.59729 4.78733C5.15162 4.78733 4.78733 5.15194 4.78733 5.59729V13.6063C4.78733 14.052 5.15194 14.4164 5.59729 14.4164H12.0045C12.4502 14.4164 12.8145 14.0517 12.8145 13.6063V5.59729C12.8145 5.15162 12.4499 4.78733 12.0045 4.78733H5.59729ZM0.791847 12.7964C0.370399 12.7964 0 12.4587 0 12.0045V2.39366C0 1.0724 1.0724 0 2.39366 0H10.4027C10.8149 0 11.1946 0.332758 11.1946 0.791849C11.1946 1.21362 10.852 1.5837 10.4027 1.5837H2.39366C1.94799 1.5837 1.5837 1.94831 1.5837 2.39366V12.0045C1.57875 12.4125 1.25492 12.7964 0.791847 12.7964Z" fill="var(--fill-0, #5B738B)"/>
</svg>
