<svg preserveAspectRatio="none" width="100%" height="100%" overflow="visible" style="display: block;" viewBox="0 0 16 12.4631" fill="none" xmlns="http://www.w3.org/2000/svg">
<path id="Vector" d="M12.8421 12.4631C12.6195 12.4631 12.4289 12.372 12.3011 12.2291C12.0454 11.9538 12.001 11.4904 12.34 11.1767C13.7091 9.8783 14.5378 8.05447 14.5184 6.23527C14.4942 4.21736 13.6221 2.52471 12.3355 1.28934C11.9916 0.956048 12.0508 0.49742 12.2966 0.236918C12.5571 -0.0383495 13.0296 -0.102084 13.349 0.198009C15.0302 1.77605 16 3.97466 16 6.23074C16 8.54636 14.9869 10.7082 13.349 12.2634C13.2257 12.3913 13.0451 12.4631 12.8421 12.4631ZM10.6257 10.5017C10.4035 10.5017 10.1981 10.4005 10.0652 10.253C9.78772 9.93693 9.80706 9.47831 10.1234 9.20056C10.9595 8.44829 11.4932 7.41119 11.4932 6.23527C11.4932 5.12533 10.9922 4.04039 10.1234 3.26998C9.8025 2.98348 9.79676 2.51547 10.0652 2.21756C10.3743 1.87887 10.8375 1.91362 11.1176 2.15935C12.2219 3.12638 12.9841 4.61143 12.9841 6.23527C12.9841 7.7667 12.3189 9.23755 11.1176 10.3112C10.9955 10.4345 10.829 10.5017 10.6257 10.5017ZM8.20879 12.2277C8.04893 12.2277 7.8834 12.165 7.77517 12.0864L3.73828 9.20245H0.745448C0.33112 9.20245 0 8.87132 0 8.45697V4.02435C0 3.61002 0.33112 3.2789 0.745448 3.2789H3.72805L7.76943 0.394459C7.9793 0.238276 8.28178 0.204757 8.5444 0.340783C8.7612 0.449313 8.94852 0.684177 8.94852 1.00841V11.5016C8.94852 11.8292 8.73283 12.07 8.5444 12.1692C8.43792 12.1934 8.33425 12.2277 8.20879 12.2277ZM1.48605 7.70162H3.97228C4.11973 7.70162 4.26114 7.74141 4.40591 7.84305L7.46331 10.0303V2.4411L4.41076 4.62838C4.26567 4.73003 4.13784 4.76979 3.95901 4.76979H1.48605V7.70162Z" fill="var(--fill-0, #5B738B)"/>
</svg>
