<svg preserveAspectRatio="none" width="100%" height="100%" overflow="visible" style="display: block;" viewBox="0 0 16 16" fill="none" xmlns="http://www.w3.org/2000/svg">
<path id="Vector" d="M15.3951 6.00506C14.8698 5.3559 14.0998 4.94194 13.2025 4.94194H9.99679V2.54231C9.99679 1.10252 8.80533 0 7.4558 0C7.09271 0 6.8222 0.251863 6.71985 0.515327L4.63979 6.00821H1.79655C0.80891 6.00821 0 6.81754 0 7.80567V14.2127C0.010159 15.1907 0.819066 16 1.80671 16H11.928C13.2281 16 14.3632 15.1022 14.649 13.8453L15.9337 8.37308C16.0992 7.6521 15.9676 6.7056 15.3951 6.00506ZM1.5883 14.0454V8.00723C1.5883 7.81819 1.72085 7.63248 1.87747 7.58748H3.01213V14.4166H1.88196C1.72566 14.3989 1.5883 14.2393 1.5883 14.0454ZM14.3938 8.01676L13.1092 13.489C12.9675 14.0563 12.4831 14.4259 11.9326 14.4259H4.60074V7.5968H5.22044C5.49362 7.5968 5.80491 7.40755 5.92943 7.08148L7.85795 1.98859C8.08673 2.20821 8.41868 2.43766 8.41868 2.9564V5.74089C8.41868 6.17926 8.76974 6.53052 9.20791 6.53052H13.2175C13.6443 6.53052 13.9674 6.74617 14.1635 6.9864C14.3755 7.24848 14.4768 7.65474 14.3938 8.01676Z" fill="var(--fill-0, #5B738B)"/>
</svg>
