<svg preserveAspectRatio="none" width="100%" height="100%" overflow="visible" style="display: block;" viewBox="0 0 16 16" fill="none" xmlns="http://www.w3.org/2000/svg">
<path id="Vector" d="M9.55144 5.73152C9.5872 6.14391 9.95812 6.46516 10.3706 6.46516H15.1538C15.6246 6.46516 16 6.09008 16 5.6197V0.84991C16 0.352772 15.5621 -0.0713591 15.0154 0.0222996C14.6255 0.0668989 14.2986 0.414275 14.2986 0.83653V3.16225C12.7381 1.2106 10.6162 0 7.99762 0C3.52411 0.00477194 0 3.62653 0 7.99969C0 12.2592 3.42818 16 8.04007 16C11.6936 16 15.0411 13.3314 15.8118 9.78305C15.9031 9.36288 15.6665 8.87616 15.1701 8.7716C14.6203 8.65815 14.2356 9.04996 14.1577 9.41275C13.5915 12.0624 11.0793 14.2502 8.10393 14.2949C4.60069 14.3484 1.68654 11.5312 1.68654 8.00417C1.68654 4.55038 4.51815 1.69982 7.9923 1.69982C10.3041 1.69982 12.2681 2.99561 13.3661 4.75971H10.3799C9.90427 4.76979 9.48006 5.18086 9.55144 5.73152Z" fill="var(--fill-0, #5B738B)"/>
</svg>
