<svg preserveAspectRatio="none" width="100%" height="100%" overflow="visible" style="display: block;" viewBox="0 0 13.99 14" fill="none" xmlns="http://www.w3.org/2000/svg">
<path id="Icon" d="M8.35 14C8.02 14 7.73 13.8 7.61 13.5L5.58 8.39L0.5 6.35C0.2 6.23 0 5.93 0 5.6C0 5.27 0.2 4.98 0.51 4.86L12.89 0.0599999C12.96 0.0299999 13.03 0.01 13.1 0C13.15 0 13.2 0 13.25 0C13.44 0.01 13.62 0.09 13.76 0.23C13.9 0.37 13.98 0.55 13.99 0.74C13.99 0.79 13.99 0.85 13.99 0.9C13.99 0.97 13.96 1.04 13.94 1.1L9.09 13.48C8.97 13.79 8.68 13.98 8.35 13.99V14ZM7.13 7.97L8.34 11.02L11.07 4.05L7.13 7.97ZM2.98 5.62L6 6.84L9.93 2.93L2.98 5.62Z" fill="var(--fill-0, white)"/>
</svg>
