<svg preserveAspectRatio="none" width="100%" height="100%" overflow="visible" style="display: block;" viewBox="0 0 15.97 15.97" fill="none" xmlns="http://www.w3.org/2000/svg">
<path id="Icon" d="M7.99 15.97C3.58 15.97 0 12.39 0 7.99C0 3.59 3.58 0 7.99 0C12.4 0 15.97 3.58 15.97 7.98C15.97 11.28 14.45 11.97 13.18 11.97C12.38 11.97 11.49 11.7 10.93 10.68C10.2 11.47 9.15 11.97 8 11.97C5.8 11.97 4.01 10.18 4.01 7.98C4.01 5.78 5.8 3.99 8 3.99C8.9 3.99 9.72 4.29 10.39 4.79C10.39 4.35 10.75 3.99 11.19 3.99C11.63 3.99 11.99 4.35 11.99 4.79V7.98C11.99 10.37 12.8 10.37 13.18 10.37C13.56 10.37 14.37 10.37 14.37 7.98C14.37 4.46 11.51 1.6 7.99 1.6C4.47 1.6 1.6 4.47 1.6 7.99C1.6 11.51 4.46 14.37 7.98 14.37C9.22 14.37 10.45 14 11.54 13.3C11.91 13.06 12.41 13.17 12.65 13.54C12.89 13.91 12.78 14.41 12.41 14.65C11.06 15.52 9.53 15.97 7.99 15.97ZM7.99 5.6C6.67 5.6 5.6 6.67 5.6 7.99C5.6 9.31 6.67 10.38 7.99 10.38C9.31 10.38 10.38 9.31 10.38 7.99C10.38 6.67 9.31 5.6 7.99 5.6Z" fill="var(--fill-0, #5D36FF)"/>
</svg>
