<svg preserveAspectRatio="none" width="100%" height="100%" overflow="visible" style="display: block;" viewBox="0 0 7.2 7.20001" fill="none" xmlns="http://www.w3.org/2000/svg">
<path id="Vector" d="M4.37143 0.77143C4.37143 0.345381 4.02605 0 3.6 0C3.17395 0 2.82857 0.345381 2.82857 0.77143V2.82858H0.771428C0.34538 2.82858 0 3.17396 0 3.60001C3.02158e-05 4.02603 0.345399 4.37144 0.771428 4.37144H2.82857V6.42858C2.8286 6.8546 3.17397 7.20001 3.6 7.20001C4.02603 7.20001 4.3714 6.8546 4.37143 6.42858V4.37144L6.50793 4.36742C6.89668 4.32769 7.19997 3.99924 7.2 3.60001C7.2 3.20075 6.89669 2.87232 6.50793 2.83259L4.37143 2.82858V0.77143Z" fill="var(--fill-0, #5B738B)"/>
</svg>
