<svg preserveAspectRatio="none" width="100%" height="100%" overflow="visible" style="display: block;" viewBox="0 0 13.2302 10.2401" fill="none" xmlns="http://www.w3.org/2000/svg">
<path id="Vector" d="M10.031 1.82694H3.19918C2.66043 1.82694 2.28571 1.37773 2.28571 0.913469C2.28571 0.444507 2.66984 0 3.19918 0L10.031 0C10.5274 0 10.9445 0.402182 10.9445 0.913469C10.9445 1.40595 10.5365 1.82694 10.031 1.82694ZM12.3167 6.0312H0.913469C0.402936 6.0312 0 5.61021 0 5.11773C0 4.62055 0.412342 4.20426 0.913469 4.20426H12.3167C12.8272 4.20426 13.2302 4.62995 13.2302 5.11773C13.2302 5.5961 12.8363 6.0312 12.3167 6.0312ZM10.031 10.2401H3.19918C2.64162 10.2401 2.28571 9.77214 2.28571 9.32669C2.28571 8.82014 2.70276 8.41323 3.19918 8.41323H10.031C10.5651 8.41323 10.9445 8.86247 10.9445 9.32669C10.9445 9.81447 10.5318 10.2401 10.031 10.2401Z" fill="var(--fill-0, #5D36FF)"/>
</svg>
