<svg preserveAspectRatio="none" width="100%" height="100%" overflow="visible" style="display: block;" viewBox="0 0 9.99989 9.99989" fill="none" xmlns="http://www.w3.org/2000/svg">
<path id="Icon" d="M8.71969 0.219671C9.01259 -0.0732235 9.48735 -0.0732235 9.78024 0.219671C10.0731 0.512569 10.0731 0.987345 9.78024 1.28022L6.06051 4.99996L9.78024 8.71969C10.0731 9.01259 10.0731 9.48737 9.78024 9.78024C9.48737 10.0731 9.01259 10.0731 8.71969 9.78024L4.99996 6.06051L1.28022 9.78024C0.987344 10.0731 0.512569 10.0731 0.219671 9.78024C-0.0732234 9.48735 -0.0732233 9.01259 0.219671 8.71969L3.93941 4.99996L0.219671 1.28022C-0.0732235 0.987326 -0.0732235 0.512565 0.219671 0.219671C0.512565 -0.0732235 0.987325 -0.0732235 1.28022 0.219671L4.99996 3.93941L8.71969 0.219671Z" fill="var(--fill-0, #5D36FF)"/>
</svg>
