<svg preserveAspectRatio="none" width="100%" height="100%" overflow="visible" style="display: block;" viewBox="0 0 7.48875 7.48875" fill="none" xmlns="http://www.w3.org/2000/svg">
<path id="Icon" d="M6.89438 7.48688C6.74438 7.48688 6.58688 7.42688 6.46688 7.31438L3.74438 4.59188L1.02187 7.31438C0.789374 7.54688 0.406875 7.54688 0.174375 7.31438C-0.058125 7.08188 -0.058125 6.69938 0.174375 6.46688L2.89687 3.74438L0.174375 1.02188C-0.058125 0.789375 -0.058125 0.406875 0.174375 0.174375C0.406875 -0.058125 0.789374 -0.058125 1.02187 0.174375L3.74438 2.89688L6.46688 0.174375C6.69938 -0.058125 7.08188 -0.058125 7.31438 0.174375C7.54688 0.406875 7.54688 0.789375 7.31438 1.02188L4.59187 3.74438L7.31438 6.46688C7.54688 6.69938 7.54688 7.08188 7.31438 7.31438C7.19438 7.43438 7.04437 7.48688 6.88687 7.48688H6.89438Z" fill="var(--fill-0, #A100C2)"/>
</svg>
