<svg preserveAspectRatio="none" width="100%" height="100%" overflow="visible" style="display: block;" viewBox="0 0 16 16" fill="none" xmlns="http://www.w3.org/2000/svg">
<path id="Icon" d="M9.5 16C8.12 16 7 14.88 7 13.5C7 12.12 8.12 11 9.5 11C10.56 11 11.48 11.67 11.84 12.61H15.2C15.64 12.61 16 12.97 16 13.41C16 13.85 15.64 14.21 15.2 14.21H11.9C11.59 15.25 10.63 16 9.5 16ZM9.5 12.6C9 12.6 8.6 13 8.6 13.5C8.6 14 9 14.4 9.5 14.4C10 14.4 10.4 14 10.4 13.5C10.4 13 10 12.6 9.5 12.6ZM4.39 14.21H0.799999C0.359999 14.21 0 13.85 0 13.41C0 12.97 0.359999 12.61 0.799999 12.61H4.39C4.83 12.61 5.19 12.97 5.19 13.41C5.19 13.85 4.83 14.21 4.39 14.21ZM4.5 11C3.29 11 2.28 10.14 2.05 9H0.799999C0.359999 9 0 8.64 0 8.2C0 7.76 0.359999 7.4 0.799999 7.4H2.26C2.67 6.57 3.52 6 4.5 6C5.88 6 7 7.12 7 8.5C7 9.88 5.88 11 4.5 11ZM4.5 7.6C4 7.6 3.6 8 3.6 8.5C3.6 9 4 9.4 4.5 9.4C5 9.4 5.4 9 5.4 8.5C5.4 8 5 7.6 4.5 7.6ZM15.2 9H9.82C9.38 9 9.02 8.64 9.02 8.2C9.02 7.76 9.38 7.4 9.82 7.4H15.2C15.64 7.4 16 7.76 16 8.2C16 8.64 15.64 9 15.2 9ZM11.5 5C10.12 5 9 3.88 9 2.5C9 1.12 10.12 0 11.5 0C12.65 0 13.63 0.79 13.91 1.85H15.2C15.64 1.85 16 2.21 16 2.65C16 3.09 15.64 3.45 15.2 3.45H13.81C13.44 4.36 12.54 5 11.5 5ZM11.5 1.6C11 1.6 10.6 2 10.6 2.5C10.6 3 11 3.4 11.5 3.4C12 3.4 12.4 3 12.4 2.5C12.4 2 12 1.6 11.5 1.6ZM6.18 3.45H0.799999C0.359999 3.45 0 3.09 0 2.65C0 2.21 0.359999 1.85 0.799999 1.85H6.18C6.62 1.85 6.98 2.21 6.98 2.65C6.98 3.09 6.62 3.45 6.18 3.45Z" fill="var(--fill-0, #5D36FF)"/>
</svg>
