<svg preserveAspectRatio="none" width="100%" height="100%" overflow="visible" style="display: block;" viewBox="0 0 16.4022 16.9931" fill="none" xmlns="http://www.w3.org/2000/svg">
<path id="Subtract" d="M5.88671 0.648405C7.31164 -0.216135 9.09166 -0.216135 10.5166 0.648405L15.0918 3.42477C16.6312 4.35903 16.8142 6.45716 15.6416 7.66891C15.2642 7.32971 14.7685 7.12301 14.2295 7.12301C13.0723 7.12308 12.1084 8.06613 12.1084 9.26071V9.91794L12.0527 9.95212H11.4014C10.4909 9.95212 9.70118 10.5356 9.40526 11.3662C8.23306 11.6952 6.95939 11.5355 5.88671 10.8847L3.70018 9.55759L2.23729 10.4453C1.65469 10.7988 1.65469 11.6542 2.23729 12.0078L6.81249 14.7832C7.66744 15.3019 8.73587 15.3019 9.59081 14.7832L10.707 14.1054C10.9255 14.1819 11.1588 14.2256 11.4014 14.2256H12.1084V14.917C12.1084 15.0664 12.1227 15.2123 12.1514 15.3525L10.5166 16.3447C9.09169 17.2092 7.31161 17.2092 5.88671 16.3447L1.31053 13.5683C-0.436868 12.5077 -0.436822 9.94542 1.31053 8.88473L1.95116 8.49606L1.31053 8.10739C-0.436559 7.04662 -0.436738 4.48539 1.31053 3.42477L5.88671 0.648405ZM14.2295 8.48825C14.3717 8.48825 14.5037 8.5295 14.6182 8.59665L14.6738 8.63083C14.8715 8.77056 15.001 9.00032 15.001 9.26071V11.3174L16.4004 11.3193C16.3824 11.8643 16.2058 12.4036 15.8711 12.8574L15.001 12.8603V13.623L13.458 14.5595V12.8603H12.7607L14.166 12.0078C14.7486 11.6542 14.7486 10.7988 14.166 10.4453L13.458 10.0156V9.26071C13.458 8.8347 13.8035 8.48832 14.2295 8.48825ZM9.59081 2.20895C8.73592 1.69032 7.66738 1.69035 6.81249 2.20895L2.23729 4.9863C1.6549 5.3399 1.65478 6.19333 2.23729 6.54684L6.81249 9.32419C7.6673 9.84265 8.73601 9.84268 9.59081 9.32419L14.166 6.54684C14.7484 6.19332 14.7483 5.33992 14.166 4.9863L9.59081 2.20895Z" fill="var(--fill-0, #5B738B)"/>
</svg>
