<svg preserveAspectRatio="none" width="100%" height="100%" overflow="visible" style="display: block;" viewBox="0 0 14.7839 3.38073" fill="none" xmlns="http://www.w3.org/2000/svg">
<path id="Vector" d="M1.69036 3.38073C2.62372 3.38073 3.38073 2.62372 3.38073 1.69036C3.38073 0.757004 2.62372 0 1.69036 0C0.757004 0 0 0.761709 0 1.69507C0 2.62843 0.757004 3.38073 1.69036 3.38073ZM13.0936 3.38073C14.027 3.38073 14.7839 2.62372 14.7839 1.69036C14.7839 0.757004 14.027 0 13.0936 0C12.1602 0 11.4032 0.761709 11.4032 1.69507C11.4032 2.62843 12.1602 3.38073 13.0936 3.38073ZM7.392 3.38073C8.32531 3.38073 9.07767 2.62372 9.07767 1.69507C9.07767 0.766407 8.32065 0.00940582 7.392 0.00940582C6.46332 0.00940582 5.70632 0.761709 5.70632 1.69507C5.70632 2.62843 6.45862 3.38073 7.392 3.38073Z" fill="var(--fill-0, #5B738B)"/>
</svg>
