<svg preserveAspectRatio="none" width="100%" height="100%" overflow="visible" style="display: block;" viewBox="0 0 16 16" fill="none" xmlns="http://www.w3.org/2000/svg">
<path id="Vector" d="M0.59588 9.9988C1.12191 10.6475 1.89315 11.0612 2.79183 11.0612H6.00257V13.4593C6.00257 14.8982 7.19109 16 8.54273 16C8.90639 16 9.1773 15.7483 9.27979 15.485L11.353 9.9956H14.2006C15.1898 9.9956 16 9.18679 16 8.19928V1.79634C16 0.808815 15.1898 0 14.2006 0H4.06348C2.76144 0 1.62458 0.897223 1.33825 2.15334L0.0666005 7.62179C-0.0991256 8.35192 0.0325645 9.30801 0.59588 9.9988ZM14.4194 1.95334V7.98769C14.4194 8.17662 14.2866 8.36227 14.1298 8.40718H12.9978V1.58244H14.1298C14.2968 1.61026 14.4194 1.76443 14.4194 1.95334ZM1.61334 7.98748L2.89548 2.51872C3.03738 1.95172 3.52254 1.58244 4.07396 1.58244H11.4127V8.40718H10.7921C10.5184 8.40718 10.2066 8.59631 10.0819 8.92217L8.15046 14.0118C7.92125 13.7924 7.58886 13.5631 7.58886 13.0446V10.262C7.58886 9.82384 7.23718 9.47282 6.79839 9.47282H2.79183C2.36435 9.47282 2.04078 9.25727 1.84434 9.01719C1.62716 8.75611 1.52573 8.35463 1.61334 7.98748Z" fill="var(--fill-0, #5B738B)"/>
</svg>
