<svg preserveAspectRatio="none" width="100%" height="100%" overflow="visible" style="display: block;" viewBox="0 0 14.5804 15.105" fill="none" xmlns="http://www.w3.org/2000/svg">
<path id="Vector" d="M9.34802 0.57636C8.08142 -0.19212 6.499 -0.19212 5.2324 0.57636L1.16521 3.04474C-0.388254 3.98753 -0.38825 6.26438 1.16521 7.20716L1.73431 7.55255L1.16521 7.89774C-0.388404 8.84051 -0.388402 11.1182 1.16521 12.061L5.2324 14.5285C6.49909 15.2972 8.08133 15.2972 9.34802 14.5285L13.4152 12.061C14.9688 11.1182 14.9688 8.84051 13.4152 7.89774L12.846 7.55261L13.4152 7.20716C14.9687 6.26438 14.9687 3.98753 13.4152 3.04474L9.34802 0.57636ZM1.98865 9.28522L3.28903 8.49611L5.2324 9.67554C6.499 10.444 8.08142 10.444 9.34802 9.67554L11.2912 8.49623L12.5918 9.28522C13.1096 9.59947 13.1096 10.3592 12.5918 10.6735L8.52537 13.1411C7.76533 13.6023 6.81509 13.6023 6.05505 13.1411L1.98865 10.6735C1.47078 10.3592 1.47078 9.59947 1.98865 9.28522ZM6.05505 1.96384C6.81509 1.50263 7.76533 1.50263 8.52537 1.96384L12.5918 4.43221C13.1096 4.74647 13.1096 5.50543 12.5918 5.81969L8.52537 8.28807C7.76533 8.74928 6.81509 8.74928 6.05505 8.28807L1.98865 5.81969C1.47078 5.50543 1.47078 4.74647 1.98865 4.43221L6.05505 1.96384Z" fill="var(--fill-0, #5D36FF)"/>
</svg>
